name Walk8.mot
datacolumns 19
datarows 22
range 3.51100000 3.53200000
endheader

                time	   L_ground_force_vx	   L_ground_force_vy	   L_ground_force_vz	   L_ground_force_px	   L_ground_force_py	   L_ground_force_pz	   R_ground_force_vx	   R_ground_force_vy	   R_ground_force_vz	   R_ground_force_px	   R_ground_force_py	   R_ground_force_pz	   L_ground_torque_x	   L_ground_torque_y	   L_ground_torque_z	   R_ground_torque_x	   R_ground_torque_y	   R_ground_torque_z	
          3.51100000	          0.00000000	          0.00000000	          0.00000000	          0.00000000	          0.00000000	          0.00000000	          0.00000000	          0.00000000	          0.00000000	          0.00000000	          0.00000000	          0.00000000	          0.00000000	          0.00000000	          0.00000000	          0.00000000	          0.00000000	          0.00000000	
          3.51200000	          0.00000000	          0.00000000	          0.00000000	          0.00000000	          0.00000000	          0.00000000	          0.00000000	          0.00000000	          0.00000000	          0.00000000	          0.00000000	          0.00000000	          0.00000000	          0.00000000	          0.00000000	          0.00000000	          0.00000000	          0.00000000	
          3.51300000	          0.00000000	          0.00000000	          0.00000000	          0.00000000	          0.00000000	          0.00000000	          0.00000000	          0.00000000	          0.00000000	          0.00000000	          0.00000000	          0.00000000	          0.00000000	          0.00000000	          0.00000000	          0.00000000	          0.00000000	          0.00000000	
          3.51400000	          0.00000000	          0.00000000	          0.00000000	          0.00000000	          0.00000000	          0.00000000	          0.00000000	          0.00000000	          0.00000000	          0.00000000	          0.00000000	          0.00000000	          0.00000000	          0.00000000	          0.00000000	          0.00000000	          0.00000000	          0.00000000	
          3.51500000	         -1.25336460	         16.88614759	         -4.75158260	         -0.49521353	          0.00000000	         -0.05560912	          0.00000000	          0.00000000	          0.00000000	          0.00000000	          0.00000000	          0.00000000	          0.00000000	         -0.04246289	          0.00000000	          0.00000000	          0.00000000	          0.00000000	
          3.51600000	         -1.65439040	         26.26910108	         -6.67930630	         -0.49150279	          0.00000000	         -0.05883732	          0.00000000	          0.00000000	          0.00000000	          0.00000000	          0.00000000	          0.00000000	          0.00000000	         -0.03484353	          0.00000000	          0.00000000	          0.00000000	          0.00000000	
          3.51700000	         -1.97434575	         37.67149540	         -8.52707221	         -0.48843875	          0.00000000	         -0.06176022	          0.00000000	          0.00000000	          0.00000000	          0.00000000	          0.00000000	          0.00000000	          0.00000000	         -0.00599037	          0.00000000	          0.00000000	          0.00000000	          0.00000000	
          3.51800000	         -2.18227258	         51.72692258	        -10.21342471	         -0.48567282	          0.00000000	         -0.06377244	          0.00000000	          0.00000000	          0.00000000	          0.00000000	          0.00000000	          0.00000000	          0.00000000	          0.03558320	          0.00000000	          0.00000000	          0.00000000	          0.00000000	
          3.51900000	         -2.26357329	         69.46826347	        -11.72553410	         -0.48319160	          0.00000000	         -0.06450226	          0.00000000	          0.00000000	          0.00000000	          0.00000000	          0.00000000	          0.00000000	          0.00000000	          0.07643557	          0.00000000	          0.00000000	          0.00000000	          0.00000000	
          3.52000000	         -2.22588226	         91.85623527	        -13.03730706	         -0.48125819	          0.00000000	         -0.06426461	          0.00000000	          0.00000000	          0.00000000	          0.00000000	          0.00000000	          0.00000000	          0.00000000	          0.10670545	          0.00000000	          0.00000000	          0.00000000	          0.00000000	
          3.52100000	         -2.10944181	        119.38058884	        -14.08899908	         -0.47997697	          0.00000000	         -0.06368231	          0.00000000	          0.00000000	          0.00000000	          0.00000000	          0.00000000	          0.00000000	          0.00000000	          0.12062334	          0.00000000	          0.00000000	          0.00000000	          0.00000000	
          3.52200000	         -2.00380157	        151.73476550	        -14.80467804	         -0.47916862	          0.00000000	         -0.06317523	          0.00000000	          0.00000000	          0.00000000	          0.00000000	          0.00000000	          0.00000000	          0.00000000	          0.11864107	          0.00000000	          0.00000000	          0.00000000	          0.00000000	
          3.52300000	         -2.06952478	        187.63879227	        -15.11437498	         -0.47856029	          0.00000000	         -0.06284508	          0.00000000	          0.00000000	          0.00000000	          0.00000000	          0.00000000	          0.00000000	          0.00000000	          0.10867880	          0.00000000	          0.00000000	          0.00000000	          0.00000000	
          3.52400000	         -2.53767381	        224.96375896	        -14.98204472	         -0.47796510	          0.00000000	         -0.06262198	          0.00000000	          0.00000000	          0.00000000	          0.00000000	          0.00000000	          0.00000000	          0.00000000	          0.10370595	          0.00000000	          0.00000000	          0.00000000	          0.00000000	
          3.52500000	         -3.67738990	        261.17220380	        -14.44382844	         -0.47732955	          0.00000000	         -0.06242909	          0.00000000	          0.00000000	          0.00000000	          0.00000000	          0.00000000	          0.00000000	          0.00000000	          0.11937449	          0.00000000	          0.00000000	          0.00000000	          0.00000000	
          3.52600000	         -5.73674375	        293.94044341	        -13.62416835	         -0.47667537	          0.00000000	         -0.06226270	          0.00000000	          0.00000000	          0.00000000	          0.00000000	          0.00000000	          0.00000000	          0.00000000	          0.17000595	          0.00000000	          0.00000000	          0.00000000	          0.00000000	
          3.52700000	         -8.87626183	        321.73151221	        -12.71121502	         -0.47603124	          0.00000000	         -0.06216915	          0.00000000	          0.00000000	          0.00000000	          0.00000000	          0.00000000	          0.00000000	          0.00000000	          0.26184057	          0.00000000	          0.00000000	          0.00000000	          0.00000000	
          3.52800000	        -13.12569586	        344.05054232	        -11.90897573	         -0.47541103	          0.00000000	         -0.06217906	          0.00000000	          0.00000000	          0.00000000	          0.00000000	          0.00000000	          0.00000000	          0.00000000	          0.38743768	          0.00000000	          0.00000000	          0.00000000	          0.00000000	
          3.52900000	        -18.37716462	        361.32524297	        -11.38343788	         -0.47481693	          0.00000000	         -0.06228173	          0.00000000	          0.00000000	          0.00000000	          0.00000000	          0.00000000	          0.00000000	          0.00000000	          0.52714867	          0.00000000	          0.00000000	          0.00000000	          0.00000000	
          3.53000000	        -24.41365273	        374.59470086	        -11.22660638	         -0.47424360	          0.00000000	         -0.06244627	          0.00000000	          0.00000000	          0.00000000	          0.00000000	          0.00000000	          0.00000000	          0.00000000	          0.65789321	          0.00000000	          0.00000000	          0.00000000	          0.00000000	
          3.53100000	        -30.96580513	        385.16417925	        -11.45675516	         -0.47368108	          0.00000000	         -0.06263592	          0.00000000	          0.00000000	          0.00000000	          0.00000000	          0.00000000	          0.00000000	          0.00000000	          0.76095482	          0.00000000	          0.00000000	          0.00000000	          0.00000000	
          3.53200000	        -37.77950736	        394.28225159	        -12.04268102	         -0.47312060	          0.00000000	         -0.06280107	          0.00000000	          0.00000000	          0.00000000	          0.00000000	          0.00000000	          0.00000000	          0.00000000	          0.82638287	          0.00000000	          0.00000000	          0.00000000	          0.00000000	
